<svg version="1.1" id="Layer_1" xmlns="http://www.w3.org/2000/svg" xmlns:xlink="http://www.w3.org/1999/xlink" x="0px" y="0px"
	viewBox="0 0 35 35" reserveAspectRatio="xMidYMid meet" enable-background="new 0 0 35 35" xml:space="preserve">
<path id="svg_2" fill="#ED2584" d="M16.25,0.043C12.071,0.354,8.26,2.072,5.268,4.996c-3.936,3.839-5.824,9.275-5.125,14.736
	c0.871,6.827,5.686,12.513,12.3,14.525c5.113,1.557,10.804,0.633,15.14-2.452c5.327-3.795,8.098-10.09,7.274-16.534
	c-0.87-6.827-5.686-12.513-12.3-14.525C20.589,0.144,18.294-0.11,16.25,0.043z M12.16,13.569c1,0.173,1.827,0.617,2.561,1.379
	c0.879,0.915,1.299,1.887,1.355,3.166c0.064,1.48-0.383,2.649-1.42,3.682c-0.834,0.839-1.746,1.282-2.867,1.399
	c-1.117,0.117-2.271-0.193-3.146-0.847c-1.057-0.783-1.698-1.723-1.956-2.867c-0.101-0.448-0.141-1.326-0.081-1.787
	c0.149-1.117,0.589-1.993,1.412-2.815c0.734-0.734,1.488-1.137,2.444-1.307C10.898,13.497,11.721,13.492,12.16,13.569z
	 M24.844,13.642c0.862,0.226,1.5,0.597,2.153,1.254c0.911,0.915,1.351,1.919,1.42,3.214c0.048,0.959-0.166,1.891-0.613,2.657
	c-0.508,0.862-1.388,1.665-2.263,2.061c-0.952,0.424-2.129,0.509-3.149,0.218c-1.21-0.347-2.351-1.291-2.96-2.46
	c-0.359-0.681-0.521-1.379-0.521-2.238c0-1.334,0.432-2.423,1.331-3.363c0.754-0.787,1.577-1.242,2.581-1.42
	c0.197-0.036,0.532-0.048,0.968-0.04C24.344,13.537,24.521,13.557,24.844,13.642z"/>
</svg>
