<svg version="1.1" id="Layer_1" xmlns="http://www.w3.org/2000/svg" xmlns:xlink="http://www.w3.org/1999/xlink" x="0px" y="0px"
	viewBox="0 0 35 35" reserveAspectRatio="xMidYMid meet" enable-background="new 0 0 35 35" xml:space="preserve">
<path fill="#CB2029" d="M0,17.501c0,7.167,4.309,13.322,10.475,16.028c-0.049-1.222-0.009-2.688,0.305-4.019
	c0.336-1.42,2.252-9.535,2.252-9.535s-0.559-1.117-0.559-2.769c0-2.594,1.503-4.53,3.375-4.53c1.592,0,2.361,1.195,2.361,2.627
	c0,1.6-1.021,3.994-1.545,6.21c-0.438,1.855,0.931,3.37,2.762,3.37c3.315,0,5.549-4.259,5.549-9.304
	c0-3.835-2.584-6.706-7.282-6.706c-5.309,0-8.615,3.959-8.615,8.381c0,1.525,0.449,2.6,1.153,3.432
	c0.324,0.383,0.369,0.536,0.251,0.976c-0.083,0.321-0.276,1.098-0.356,1.404c-0.116,0.443-0.476,0.603-0.876,0.438
	c-2.445-0.998-3.583-3.677-3.583-6.687c0-4.971,4.192-10.932,12.506-10.932c6.682,0,11.079,4.835,11.079,10.025
	c0,6.865-3.816,11.994-9.442,11.994c-1.89,0-3.667-1.021-4.275-2.182c0,0-1.016,4.032-1.231,4.811
	c-0.371,1.351-1.097,2.698-1.761,3.749C14.116,34.747,15.777,35,17.5,35C27.165,35,35,27.166,35,17.5C35,7.835,27.165,0,17.5,0
	C7.836,0.001,0,7.836,0,17.501z"/>
</svg>
