<svg version="1.1" id="Layer_1" xmlns="http://www.w3.org/2000/svg" xmlns:xlink="http://www.w3.org/1999/xlink" x="0px" y="0px" 
	viewBox="0 0 35 35" reserveAspectRatio="xMidYMid meet" enable-background="new 0 0 35 35" xml:space="preserve">
<g>
	<defs>
		<rect id="SVGID_1_" width="35" height="35"/>
	</defs>
	<clipPath id="SVGID_2_">
		<use xlink:href="#SVGID_1_"  overflow="visible"/>
	</clipPath>
	<path clip-path="url(#SVGID_2_)" fill="#439CD6" d="M35,17.5C35,27.165,27.164,35,17.497,35C7.831,35-0.005,27.165-0.005,17.5
		C-0.005,7.835,7.831,0,17.497,0C27.164,0,35,7.835,35,17.5"/>
</g>
<g>
	<defs>
		<rect id="SVGID_3_" width="35" height="35"/>
	</defs>
	<clipPath id="SVGID_4_">
		<use xlink:href="#SVGID_3_"  overflow="visible"/>
	</clipPath>
	<path clip-path="url(#SVGID_4_)" fill="#FFFFFF" d="M13.682,25.856c7.761,0,12.005-6.429,12.005-12.003
		c0-0.183-0.004-0.365-0.012-0.545c0.823-0.596,1.54-1.339,2.104-2.185c-0.756,0.336-1.569,0.562-2.423,0.664
		c0.871-0.522,1.539-1.349,1.854-2.333c-0.815,0.483-1.718,0.834-2.679,1.024c-0.771-0.82-1.866-1.333-3.08-1.333
		c-2.33,0-4.22,1.89-4.22,4.219c0,0.331,0.037,0.653,0.109,0.962c-3.506-0.176-6.616-1.855-8.697-4.408
		c-0.363,0.624-0.572,1.348-0.572,2.12c0,1.464,0.745,2.756,1.878,3.512c-0.692-0.021-1.343-0.211-1.911-0.528
		C8.04,15.039,8.04,15.057,8.04,15.075c0,2.043,1.455,3.749,3.385,4.135c-0.354,0.097-0.727,0.148-1.112,0.148
		c-0.271,0-0.536-0.026-0.793-0.076c0.537,1.677,2.095,2.896,3.942,2.931c-1.445,1.132-3.264,1.806-5.241,1.806
		c-0.34,0-0.676-0.02-1.007-0.059C9.082,25.158,11.299,25.856,13.682,25.856"/>
</g>
</svg>
