<svg version="1.1" id="Layer_1" xmlns="http://www.w3.org/2000/svg" xmlns:xlink="http://www.w3.org/1999/xlink" x="0px" y="0px"
	viewBox="0 0 35 35" reserveAspectRatio="xMidYMid meet" enable-background="new 0 0 35 35" xml:space="preserve">
<path fill="#46AFDA" d="M17.5,0C27.166,0,35,7.835,35,17.5C35,27.166,27.165,35,17.5,35C7.834,35,0,27.166,0,17.5
	C0,7.835,7.834,0,17.5,0z"/>
<path fill="#FFFFFF" d="M7.655,14.218c1.637-1.306,3.964-4.173,5.777-4.173c1.812,0,2.258,2.141,2.505,4.082
	c0.25,1.941,0.962,6.189,1.92,6.189c0.96,0,3.147-3.758,3.022-5.209c-0.122-1.452-1.706-1.234-2.577-0.817
	c0.801-2.903,2.649-4.446,5.013-4.446c2.365,0,2.936,1.67,2.936,3.722c0,3.121-6.327,12.687-10.15,12.687
	c-2.365,0-2.951-3.484-3.43-5.211c-0.48-1.721-1.423-6.243-2.526-6.533c-0.427-0.071-1.635,0.888-1.635,0.888L7.655,14.218z"/>
</svg>
